<svg width="15" height="9" viewBox="0 0 15 9" fill="none" xmlns="http://www.w3.org/2000/svg">
<path fill-rule="evenodd" clip-rule="evenodd" d="M0.338524 1.2637C-0.044498 1.67144 -0.044498 2.33188 0.338524 2.73925L4.33323 6.98253C4.71625 7.3904 5.33788 7.3904 5.7209 6.98253L8.76002 3.75489L11.0669 6.20602L10.35 6.96616C10.0919 7.24084 10.2106 7.71054 10.5639 7.80951L14.3003 8.87427C14.6539 8.97532 14.9761 8.63172 14.8808 8.25636L13.88 4.28545C13.7858 3.91106 13.3447 3.78593 13.0855 4.06037L12.4568 4.72862L9.45417 1.54119C9.07115 1.13308 8.44859 1.13308 8.06524 1.54119L5.02643 4.76907L1.72744 1.2637C1.53587 1.0605 1.2845 0.958594 1.03408 0.958594C0.78163 0.958594 0.531214 1.0605 0.338524 1.2637Z" fill="white"/>
</svg>
