<svg width="15" height="9" viewBox="0 0 15 9" fill="none" xmlns="http://www.w3.org/2000/svg">
<path fill-rule="evenodd" clip-rule="evenodd" d="M13.0853 5.71556L12.456 5.05316L9.45444 8.21041C9.07063 8.61266 8.449 8.61266 8.06457 8.21041L5.02716 5.01418L1.72803 8.48375C1.34501 8.88747 0.72259 8.88747 0.339406 8.48375C-0.044714 8.08114 -0.044714 7.42633 0.339406 7.02347L4.33271 2.82332C4.71683 2.41973 5.33846 2.4201 5.72148 2.82332L8.75919 6.01809L11.0664 3.59214L10.3499 2.83933C10.092 2.56685 10.2098 2.10216 10.5632 2.0027L14.2992 0.950278C14.6529 0.850211 14.9759 1.19026 14.8805 1.56197L13.8798 5.49255C13.7856 5.86365 13.3436 5.98754 13.0853 5.71556Z" fill="white"/>
</svg>
